<svg width="93" height="72" viewBox="0 0 93 72" fill="none" xmlns="http://www.w3.org/2000/svg">
<path d="M0.44934 57.1123C-0.497585 51.9322 0.0520841 46.2237 2.09834 39.9866C4.1446 33.7496 7.08272 27.8593 10.9127 22.3158C14.7201 16.649 19.19 11.8171 24.3223 7.81995C29.432 3.69947 34.577 1.16577 39.757 0.218841C43.4571 -0.457534 46.2334 0.436962 48.0861 2.90232C50.0396 5.2218 51.2869 7.86155 51.828 10.8216C52.4593 14.275 51.4872 18.0214 48.9118 22.061C46.3138 25.9772 42.9699 29.6474 38.8799 33.0717C34.79 36.4959 30.4249 39.4606 25.7846 41.9658C21.1443 44.471 17.0975 46.0392 13.6441 46.6705C13.0274 46.7832 12.4108 46.8959 11.7941 47.0087C11.1774 47.1214 10.5999 47.0995 10.0614 46.943C9.82671 47.7507 9.6258 48.7433 9.45871 49.921C9.26907 50.9753 9.09071 52.0913 8.92362 53.2689C8.87986 54.424 8.82483 55.5175 8.75853 56.5492C8.81556 57.5585 8.88917 58.3097 8.97935 58.8031C9.72336 62.8731 12.2537 64.5136 16.5704 63.7245C20.1471 63.0707 24.2331 61.3678 28.8283 58.616C33.5468 55.8416 38.3715 52.6017 43.3022 48.8963C48.3337 45.045 53.2697 41.0201 58.1103 36.8213C62.9283 32.4993 67.2476 28.587 71.0683 25.0845C74.8665 21.4587 78.0148 18.4616 80.5133 16.093C83.0118 13.7244 84.3844 12.5176 84.6311 12.4725C85.9878 12.2245 87.5076 12.5202 89.1905 13.3597C90.8509 14.0758 91.8276 15.2355 92.1207 16.8389C92.2785 17.7022 91.03 19.5874 88.375 22.4944C85.8433 25.3789 82.443 28.7408 78.174 32.5801C73.9051 36.4194 69.1037 40.4835 63.7698 44.7724C58.5592 49.0388 53.3036 53.0585 48.0029 56.8315C42.6796 60.4812 37.6474 63.6315 32.9064 66.2826C28.2886 68.9111 24.4997 70.4959 21.5397 71.037C19.5663 71.3978 17.3907 71.3494 15.0129 70.8919C12.7584 70.4118 10.6325 69.5896 8.63526 68.4252C6.63803 67.2608 4.89277 65.7318 3.39947 63.838C1.90618 61.9442 0.922803 59.7023 0.44934 57.1123ZM13.1985 37.9575L14.3085 37.7546C17.0218 37.2586 19.7571 36.185 22.5142 34.5339C25.3721 32.7369 28.0616 30.7158 30.5827 28.4705C33.1037 26.2253 35.4172 23.8905 37.5232 21.4663C39.6066 18.9187 41.2305 16.6462 42.3949 14.649C43.6826 12.6292 44.41 11.0305 44.5771 9.85286C44.845 8.52933 44.3622 7.98029 43.1289 8.20575C39.9222 8.79194 36.8395 10.0565 33.8808 11.9993C30.8995 13.8189 28.1205 16.0476 25.5438 18.6853C22.9445 21.1998 20.6482 23.9775 18.655 27.0184C16.6617 30.0594 15.0385 33.0327 13.7853 35.9384L13.1985 37.9575Z" fill="white"/>
</svg>
