<svg width="105" height="73" viewBox="0 0 105 73" fill="none" xmlns="http://www.w3.org/2000/svg">
<path d="M0.0253902 68.5024C-0.129217 67.6474 0.422411 65.4664 1.68027 61.9594C2.816 58.4746 4.34089 54.3517 6.25497 49.5908C8.29118 44.8079 10.4664 39.7475 12.7807 34.4098C15.1951 28.9278 17.5145 23.9675 19.7392 19.5289C21.9417 14.9681 23.9103 11.2065 25.645 8.24397C27.3577 5.1593 28.5193 3.56175 29.1301 3.45132C30.2293 3.25254 31.5222 3.77556 33.0086 5.02038C34.5951 6.12098 35.4988 7.282 35.7197 8.50341C35.786 8.86983 35.235 10.357 34.0668 12.9648C32.9987 15.4284 31.6804 18.2525 30.112 21.4372C28.6657 24.5999 27.2474 27.5682 25.857 30.3424C24.4666 33.1165 23.5324 34.9252 23.0542 35.7685C23.8767 34.7368 25.1105 33.1893 26.7555 31.1259C28.5227 29.0405 30.5011 26.7276 32.6905 24.1874C35.0022 21.6251 37.3638 18.9907 39.7755 16.2841C42.2873 13.4334 44.721 10.849 47.0768 8.53094C49.4327 6.21291 51.6104 4.30548 53.6102 2.80865C55.5879 1.18967 57.1264 0.280797 58.2256 0.0820169C59.9356 -0.227197 61.7391 0.329621 63.6362 1.75247C65.5111 3.05318 66.5922 4.49744 66.8793 6.08528C67.1002 7.30669 66.954 9.28823 66.4406 12.0299C65.9273 14.7716 65.225 17.8627 64.3335 21.3035C63.5642 24.7221 62.6949 28.2849 61.7255 31.992C60.8561 35.5549 60.1258 38.8403 59.5345 41.8484C58.9212 44.7342 58.5358 47.1374 58.3786 49.0579C58.3214 50.8341 58.7203 51.6449 59.5752 51.4903C60.5524 51.3136 61.9076 50.4379 63.641 48.8631C65.4745 47.1441 67.497 45.0755 69.7086 42.6574C71.8981 40.1172 74.2376 37.3606 76.7273 34.3877C79.1949 31.2927 81.6014 28.2087 83.9468 25.1357C86.4144 22.0407 88.7208 19.1009 90.8661 16.3164C92.9894 13.4097 94.8124 10.9358 96.3353 8.89448C96.6355 8.4618 97.0909 8.19024 97.7016 8.07981C98.8009 7.88103 100.061 8.22084 101.481 9.09924C102.901 9.97764 103.744 11.1497 104.009 12.6154C104.163 13.4704 103.412 15.246 101.755 17.9421C100.077 20.5161 97.8423 23.5059 95.0525 26.9115C92.3848 30.295 89.3728 33.8669 86.0164 37.6272C82.6601 41.3876 79.3206 44.8925 75.9981 48.1422C72.6534 51.2697 69.5368 53.9145 66.6483 56.0766C63.904 58.3387 61.7379 59.6134 60.15 59.9005C57.8294 60.3202 55.4652 59.8017 53.0575 58.345C50.6718 57.0105 49.2692 55.1829 48.8496 52.8622C48.5845 51.3965 48.7256 49.0375 49.2727 45.7852C49.7977 42.4108 50.4617 38.7589 51.2648 34.8296C52.168 30.7561 53.1432 26.7326 54.1906 22.7592C55.2159 18.6636 56.0573 15.295 56.7148 12.6534C52.97 16.3578 48.8749 20.567 44.4297 25.2811C40.1066 29.973 35.8276 34.9092 31.5929 40.0897C27.3581 45.2702 23.3397 50.6008 19.5376 56.0815C15.8356 61.4179 12.7443 66.6439 10.2637 71.7595L7.98135 72.7398C4.71733 72.8255 2.06534 71.413 0.0253902 68.5024Z" fill="white"/>
</svg>
