<svg width="101" height="113" viewBox="0 0 101 113" fill="none" xmlns="http://www.w3.org/2000/svg">
<path d="M0.235831 105.1C-0.454305 101.261 0.370279 96.9573 2.70958 92.1898C4.94729 87.5685 8.21546 82.6341 12.5141 77.3867C16.7111 72.2853 21.6512 67.0504 27.3345 61.6818C33.1415 56.2911 39.1058 51.0638 45.2274 46.0001C44.2172 44.6475 43.145 43.306 42.0109 41.9756C40.8768 40.6453 39.7427 39.3149 38.6086 37.9846C37.5984 36.632 36.6389 35.2063 35.7303 33.7076C34.9455 32.1866 34.3972 30.5591 34.0855 28.8253C33.6403 26.3483 34.2255 23.5582 35.8412 20.4551C37.5807 17.3297 39.787 14.3122 42.4603 11.4025C45.1335 8.49278 47.9466 6.00542 50.8995 3.94041C53.8302 1.75155 56.4102 0.456759 58.6394 0.0560359C60.0018 -0.188851 61.5088 0.37128 63.1606 1.73643C64.8123 3.10158 65.7606 4.46532 66.0055 5.82766C66.1391 6.57075 66.025 7.35836 65.6631 8.19051C65.4252 9.00039 65.0014 9.84368 64.3919 10.7203C63.9062 11.5748 63.3475 12.3784 62.7157 13.1312C62.2078 13.8617 61.7395 14.4573 61.3109 14.9179C60.9046 15.5024 60.4537 15.8391 59.9583 15.9281C59.0914 16.084 58.3434 15.8349 57.7144 15.1808C57.2093 14.5045 57.2107 13.8011 57.7187 13.0705L56.9276 11.8703C55.6988 12.8583 54.2557 14.0766 52.5984 15.5252C50.941 16.9737 49.379 18.5969 47.9122 20.3948C46.5471 22.0465 45.4011 23.8507 44.4743 25.8072C43.6713 27.7414 43.4368 29.6374 43.7707 31.4952C44.0156 32.8575 44.8115 34.4404 46.1585 36.2439C47.4833 37.9235 48.9652 39.7667 50.6045 41.7733C54.8432 38.3265 59.0423 35.0147 63.2017 31.8379C67.3389 28.5372 71.2109 25.5399 74.8179 22.8459C78.5487 20.1296 81.9414 17.666 84.9959 15.4548C88.0281 13.1199 90.5587 11.1947 92.5876 9.67932C93.2862 9.29804 93.7593 9.08516 94.007 9.04063C94.874 8.8848 95.7235 8.98778 96.5557 9.3496C97.3878 9.71142 98.1184 10.2194 98.7473 10.8734C99.4779 11.3813 99.9719 11.9957 100.229 12.7166C100.464 13.3135 100.419 13.7693 100.092 14.0837C98.8502 15.7132 96.7246 17.7574 93.7146 20.2162C90.6823 22.5512 87.1373 25.234 83.0795 28.2648C78.9994 31.1716 74.5192 34.3422 69.6389 37.7765C64.8825 41.1885 60.0357 44.8085 55.0983 48.6366C55.4796 49.3351 55.8101 50.1068 56.0898 50.9514C56.3472 51.6723 56.5427 52.4042 56.6763 53.1473C57.8117 59.4636 57.0559 65.9281 54.4091 72.5407C51.7622 79.1533 48.064 85.2517 43.3145 90.836C38.7111 96.5218 33.5073 101.357 27.7031 105.341C21.7749 109.347 16.1481 111.828 10.8226 112.786C8.4695 113.209 6.25903 112.647 4.19121 111.101C1.99954 109.577 0.681079 107.577 0.235831 105.1ZM8.66242 103.969C12.254 103.323 16.5519 101.272 21.556 97.8156C26.5824 94.4829 31.2163 90.3897 35.4579 85.5361C39.8233 80.6602 43.3454 75.3605 46.0243 69.637C48.7254 64.0375 49.6196 58.6988 48.7068 53.621C43.6679 57.5952 38.7751 61.6709 34.0285 65.8483C29.4279 70.1272 25.3338 74.3791 21.7463 78.6038C18.035 82.8507 15.027 87.0991 12.7225 91.3488C10.3164 95.7447 8.96307 99.9514 8.66242 103.969Z" fill="white"/>
</svg>
