<svg width="143" height="167" viewBox="0 0 143 167" fill="none" xmlns="http://www.w3.org/2000/svg">
<path d="M4.15485 166.102C3.32065 166.22 2.42782 165.92 1.47638 165.203C0.420656 164.501 -0.0688749 163.666 0.00778166 162.698C-0.0474569 160.791 0.71939 157.547 2.30832 152.964C3.80764 148.5 5.87483 143.158 8.5099 136.939C11.2346 130.602 14.3104 123.736 17.7374 116.343C21.2541 108.83 24.8676 101.251 28.5782 93.6053C32.3783 85.8404 36.2004 78.2319 40.0445 70.7799C43.8886 63.3278 47.4484 56.5006 50.7238 50.2982C53.9991 44.0957 56.9225 38.7935 59.4939 34.3913C62.0506 29.8849 63.949 26.7471 65.189 24.9778C65.6975 24.0556 66.28 23.2826 66.9366 22.6586C67.5786 21.9304 68.1017 21.1125 68.5058 20.205C64.7959 21.0455 60.8774 21.9152 56.7503 22.8142C52.6233 23.7132 48.4587 24.7239 44.2567 25.8461C40.1589 26.9537 36.0832 28.2177 32.0294 29.6381C28.0799 31.0438 24.3161 32.6361 20.738 34.415C20.1417 34.7115 19.0533 35.2898 17.4728 36.1499C15.9819 36.8911 14.9237 37.3057 14.298 37.3936C13.3595 37.5255 12.5563 37.1067 11.8884 36.1373C11.2205 35.1678 10.9322 34.2513 11.0235 33.3878C11.0708 32.2114 11.8106 31.0441 13.2429 29.8858C14.6751 28.7275 16.5391 27.6148 18.8348 26.5478C21.1306 25.4808 23.806 24.4668 26.861 23.5058C29.9013 22.4405 33.0459 21.3605 36.2948 20.2659C42.8366 18.3895 49.3555 16.729 55.8516 15.2844C62.4373 13.7208 68.9937 11.9487 75.5208 9.968C75.8793 9.49228 76.3722 8.83816 76.9995 8.00564C77.6122 7.06886 78.2322 6.18421 78.8596 5.35169C79.5765 4.40024 80.2112 3.61987 80.7636 3.01056C81.4056 2.28232 81.9351 1.88889 82.3522 1.83027C83.4993 1.66907 84.4507 2.38603 85.2066 3.98116C85.9478 5.47203 86.1758 6.71601 85.8906 7.71311C86.7248 7.59587 87.462 7.54542 88.1023 7.56177C88.728 7.47384 89.3536 7.38591 89.9793 7.29798C92.0648 7.00488 93.9344 6.68895 95.5882 6.3502C97.2273 5.90716 98.8737 5.51627 100.527 5.17751C102.167 4.73448 103.917 4.32894 105.78 3.96087C107.642 3.5928 109.824 3.23291 112.327 2.88119C113.474 2.71999 115.135 2.43337 117.31 2.02134C119.575 1.49038 122.063 1.03439 124.774 0.653358C126.86 0.360259 128.908 0.178759 130.918 0.108863C133.018 -0.0799626 134.887 -0.0235964 136.525 0.277957C138.162 0.57951 139.464 1.14091 140.43 1.96215C141.396 2.78339 141.877 3.93859 141.874 5.42776L142.094 6.9919C141.944 7.43831 141.645 7.95884 141.197 8.55349C140.838 9.02922 140.45 9.29639 140.033 9.35501C139.512 9.42828 138.715 9.43392 137.643 9.37192C136.556 9.20564 135.373 9.10616 134.092 9.07347C132.901 8.92184 131.665 8.82969 130.385 8.797C129.089 8.66003 128.025 8.65017 127.19 8.7674L119.37 9.86653C115.512 10.4088 112.026 10.9518 108.912 11.4958C105.888 11.9208 102.931 12.4427 100.04 13.0616C97.1354 13.5762 94.1856 14.1503 91.1909 14.7838C88.1962 15.4174 84.7469 16.2212 80.8431 17.1952C77.079 22.1902 72.8651 28.5246 68.2015 36.1981C63.6421 43.857 58.91 52.1782 54.0051 61.1617C49.1002 70.1452 44.1944 79.501 39.2878 89.229C34.3812 98.9571 29.8176 108.477 25.597 117.79C21.466 126.984 17.7904 135.635 14.5703 143.744C11.3648 151.957 9.00339 158.988 7.48604 164.837C7.09824 165.104 6.59885 165.334 5.98785 165.526C5.28723 165.837 4.67623 166.029 4.15485 166.102Z" fill="white"/>
</svg>
