<svg width="96" height="60" viewBox="0 0 96 60" fill="none" xmlns="http://www.w3.org/2000/svg">
<path d="M14.1705 59.1695C11.2267 59.702 8.25605 59.036 5.2586 57.1714C2.38382 55.2846 0.669073 52.808 0.11436 49.7415C-0.129714 48.3922 0.017004 46.4023 0.554514 43.7715C1.06983 41.0182 1.7861 37.9751 2.70331 34.6424C3.74317 31.2874 4.95594 27.8378 6.3416 24.2937C7.82773 20.6046 9.31909 17.2947 10.8157 14.3638C12.3123 11.4329 13.7639 8.95355 15.1705 6.92567C16.6998 4.87561 18.0777 3.73963 19.3043 3.51774C20.6536 3.27367 21.9409 3.73751 23.1662 4.90926C24.492 5.93616 25.2548 7.00157 25.4545 8.10551C25.4989 8.35083 25.1133 9.37064 24.2978 11.1649C23.4602 12.8365 22.4548 14.9818 21.2818 17.6008C20.1088 20.2198 18.7962 23.1174 17.344 26.2936C15.8918 29.4698 14.6235 32.6127 13.5393 35.7223C12.455 38.832 11.5939 41.7746 10.9559 44.5501C10.318 47.3257 10.1543 49.5721 10.4649 51.2893C13.2978 50.1435 16.2318 48.156 19.2669 45.3269C22.4246 42.4755 25.5772 39.2451 28.7244 35.6356C31.9722 31.8812 35.0751 28.0264 38.0331 24.0711C40.969 19.9932 43.715 16.2663 46.2712 12.8904C48.95 9.49231 51.2158 6.61229 53.0687 4.25033C55.0442 1.86619 56.5618 0.451601 57.6213 0.00658341C59.383 -0.0587355 60.9156 0.360727 62.2192 1.26497C63.6455 2.14703 64.5251 3.50801 64.8579 5.34791C65.0354 6.32919 64.5207 8.38574 63.3138 11.5176C62.2074 14.5045 60.872 17.9763 59.3075 21.9328C57.7209 25.7667 56.2068 29.6508 54.765 33.5851C53.3233 37.5195 52.3558 40.9247 51.8627 43.8007C53.1115 43.7015 54.768 42.7051 56.8323 40.8116C58.997 38.7733 61.3405 36.3226 63.8628 33.4595C66.4855 30.4516 69.1363 27.2486 71.8151 23.8505C74.4718 20.3298 76.9777 17.0263 79.3329 13.9401C81.6881 10.8539 83.6917 8.27466 85.3436 6.2024C87.096 3.9853 88.318 2.68752 89.0096 2.30907C89.2327 2.14203 89.5283 2.02524 89.8963 1.95867C91.2455 1.7146 92.5328 2.17844 93.7582 3.35019C94.9614 4.39928 95.6739 5.53712 95.8958 6.76372C95.6048 7.95642 94.5551 9.85641 92.7466 12.4637C90.9381 15.071 88.6945 18.0736 86.0156 21.4717C83.3146 24.7471 80.3292 28.2007 77.0592 31.8324C73.8898 35.3192 70.8097 38.5999 67.819 41.6743C64.8061 44.6262 62.0946 47.1434 59.6845 49.2262C57.2522 51.1862 55.4841 52.2661 54.3802 52.4658C51.8043 52.9318 49.3687 52.4223 47.0733 50.9374C44.7779 49.4525 43.3973 47.4222 42.9313 44.8463C42.8204 44.233 42.7877 43.3522 42.8333 42.2039C42.879 41.0556 42.9748 39.8348 43.1209 38.5417C43.3897 37.2263 43.6584 35.911 43.9272 34.5956C44.1737 33.1576 44.4425 31.8422 44.7334 30.6495C43.1037 32.8445 41.1726 35.4739 38.94 38.5379C36.7074 41.6019 34.2687 44.5766 31.6238 47.4618C28.9789 50.3471 26.1447 52.8865 23.1213 55.0802C20.2206 57.2517 17.237 58.6148 14.1705 59.1695Z" fill="white"/>
</svg>
